<?xml version="1.0" standalone="no"?>
<!DOCTYPE svg PUBLIC "-//W3C//DTD SVG 20010904//EN"
 "http://www.w3.org/TR/2001/REC-SVG-20010904/DTD/svg10.dtd">
<svg version="1.0" xmlns="http://www.w3.org/2000/svg"
 width="500.000000pt" height="500.000000pt" viewBox="0 0 500.000000 500.000000"
 preserveAspectRatio="xMidYMid meet">
<metadata>
Created by potrace 1.14, written by Peter Selinger 2001-2017
</metadata>
<g transform="translate(0.000000,500.000000) scale(0.100000,-0.100000)"
fill="#000000" stroke="none">
<path d="M0 2500 l0 -2500 2500 0 2500 0 0 2500 0 2500 -2500 0 -2500 0 0
-2500z m2017 893 c-4 -263 -10 -507 -14 -542 l-6 -64 89 89 c101 102 185 152
311 185 112 30 326 30 438 0 409 -108 613 -474 592 -1060 -8 -231 -38 -370
-112 -526 -94 -196 -279 -349 -486 -399 -150 -36 -346 -30 -487 17 -87 28
-203 105 -280 186 -45 47 -65 62 -71 52 -4 -7 -21 -64 -37 -127 l-29 -114
-117 0 -118 0 0 1390 0 1390 167 0 166 0 -6 -477z"/>
<path d="M2475 2810 c-225 -24 -335 -110 -407 -320 -65 -190 -66 -624 -1 -825
72 -225 197 -320 448 -340 312 -26 500 144 560 505 24 143 16 448 -14 570 -78
308 -271 443 -586 410z"/>
</g>
</svg>
